# xmcd
#
# Track frame offsets:
#	150
#	11209
#	21408
#	31458
#	42592
#	52770
#	65183
#	78170
#	89453
#	102048
#	115623
#	130028
#	142382
#	154852
#	166926
#	176755
#	184862
#	195939
#	204153
#	210904
#	222837
#	231357
#	239207
#	250133
#	260495
#	270802
#	283477
#	300459
#	311930
#
# Disc length: 4297 seconds
#
# Revision: 0
# Processed by: cddbd v1.5.2PL0 Copyright (c) Steve Scherf et al.
# Submitted via: EasyCDDAExtractor 12.0.1.1
#
DISCID=a510c71d
DTITLE=Johnny Cash - Complete Recording Sessions [Cd 02] 1956-1957 Sessions
DYEAR=2005
DGENRE=Country
TTITLE0=I Love You Because (Outtake)
TTITLE1=Goodbye Little Darling (O.D.M)
TTITLE2=Straight A's In Love
TTITLE3=I Love You Because
TTITLE4=Straight A's In Love
TTITLE5=Don't Make Me Go
TTITLE6=Don't Make Me Go
TTITLE7=Don't Make Me Go
TTITLE8=Next In Line
TTITLE9=Home Of The Blues
TTITLE10=Give My Love To Rose
TTITLE11=Give My Love To Rose
TTITLE12=Give My Love To Rose
TTITLE13=Home Of The Blues
TTITLE14=Rock Island Line
TTITLE15=Wreck Of The Old '97
TTITLE16=Belshazzar
TTITLE17=Country Boy
TTITLE18=Leave That Junk Alone
TTITLE19=Doin' My Time
TTITLE20=Country Boy
TTITLE21=If The Good Lord's Willing
TTITLE22=I Heard That Lonesome Whistle
TTITLE23=I Was There When It Happened
TTITLE24=I Was There When It Happened
TTITLE25=Remember Me
TTITLE26=Big River
TTITLE27=Big River
TTITLE28=Ballad Of A Teenage Queen
EXTD=
EXTT0=
EXTT1=
EXTT2=
EXTT3=
EXTT4=
EXTT5=
EXTT6=
EXTT7=
EXTT8=
EXTT9=
EXTT10=
EXTT11=
EXTT12=
EXTT13=
EXTT14=
EXTT15=
EXTT16=
EXTT17=
EXTT18=
EXTT19=
EXTT20=
EXTT21=
EXTT22=
EXTT23=
EXTT24=
EXTT25=
EXTT26=
EXTT27=
EXTT28=
PLAYORDER=
